<svg xmlns="http://www.w3.org/2000/svg" width="80.46" height="22" viewBox="0 0 80.46 22"><defs><style>.a{fill:#fff;}</style></defs><g transform="translate(-259.999 -328)"><path class="a" d="M10.892,21.861.142,11.111a.494.494,0,0,1,0-.693,2.281,2.281,0,0,1,3.207,0L10.83,17.9a.49.49,0,0,0,.689,0l4.213-4.213a2.281,2.281,0,0,1,3.207,0,.519.519,0,0,1,.062.755l-7.419,7.419a.49.49,0,0,1-.343.139A.5.5,0,0,1,10.892,21.861Zm53.413-5.376A4.287,4.287,0,0,1,62.8,15.48a4.035,4.035,0,0,1-.879-1.509,6.464,6.464,0,0,1-.252-1.887,5.147,5.147,0,0,1,.376-2.074A5.2,5.2,0,0,1,62.986,8.5a3.952,3.952,0,0,1,1.384-.878,4.634,4.634,0,0,1,1.571-.317,3.891,3.891,0,0,1,3.017,1.2,4.775,4.775,0,0,1,1.13,3.458v.5a1.413,1.413,0,0,1-.062.5H64.243A1.781,1.781,0,0,0,65,14.223a2.928,2.928,0,0,0,1.76.438,10.481,10.481,0,0,0,1.384-.124,4.934,4.934,0,0,0,1.13-.314l.314,2.074a3.075,3.075,0,0,1-.565.189l-.754.186a3.578,3.578,0,0,1-.878.127,4.8,4.8,0,0,1-.944.063A5.652,5.652,0,0,1,64.305,16.486Zm.882-6.979a3.7,3.7,0,0,0-.5.376,1.629,1.629,0,0,0-.314.568c-.065.252-.127.44-.19.627h3.458a2.28,2.28,0,0,0-.127-.627,2.587,2.587,0,0,0-.314-.568,1,1,0,0,0-.5-.376,1.385,1.385,0,0,0-.754-.124A2.748,2.748,0,0,0,65.187,9.507ZM74.8,16.672c-.313-.062-.692-.062-1.006-.124l-.944-.19c-.314-.062-.565-.124-.816-.186V3.6l2.577-.44V7.623a4.833,4.833,0,0,1,.882-.317A4.945,4.945,0,0,1,76.5,7.183a4.783,4.783,0,0,1,1.7.313,4.623,4.623,0,0,1,1.254.944,4.8,4.8,0,0,1,.758,1.508,7.6,7.6,0,0,1,.248,2.074,6.308,6.308,0,0,1-.314,1.949,3.865,3.865,0,0,1-.941,1.509,3.624,3.624,0,0,1-1.447.941,6.435,6.435,0,0,1-2.012.316A4.589,4.589,0,0,1,74.8,16.672Zm.5-7.037a1.893,1.893,0,0,0-.627.248v4.654c.124,0,.313.062.5.062h.63a1.947,1.947,0,0,0,1.571-.692,3.873,3.873,0,0,0,.5-1.947c0-1.635-.627-2.453-1.822-2.453A3.08,3.08,0,0,0,75.307,9.635ZM37.214,15.1a7.841,7.841,0,0,1-1.133-4.587A10.819,10.819,0,0,1,36.4,7.872a6.117,6.117,0,0,1,.879-1.947,3.606,3.606,0,0,1,1.384-1.2,4.04,4.04,0,0,1,1.76-.441,3.628,3.628,0,0,1,3.141,1.575,8.217,8.217,0,0,1,1.068,4.65A7.842,7.842,0,0,1,43.5,15.1a3.924,3.924,0,0,1-6.286,0Zm2.325-8.3a2.035,2.035,0,0,0-.5.82,3.748,3.748,0,0,0-.251,1.258,13.234,13.234,0,0,0-.062,1.633,13.286,13.286,0,0,0,.062,1.633,5.6,5.6,0,0,0,.251,1.26,2.038,2.038,0,0,0,.5.816,1.2,1.2,0,0,0,.816.314,1.334,1.334,0,0,0,.819-.314,2.072,2.072,0,0,0,.5-.816,6.666,6.666,0,0,0,.252-1.26,12.8,12.8,0,0,0,.062-1.633,13.829,13.829,0,0,0-.062-1.633,6.574,6.574,0,0,0-.252-1.258,2.069,2.069,0,0,0-.5-.82,1.208,1.208,0,0,0-.819-.313A1.336,1.336,0,0,0,39.539,6.8ZM55.5,16.548c-.376-1.068-.816-2.264-1.192-3.458s-.754-2.387-1.133-3.645c-.376,1.2-.754,2.387-1.068,3.645s-.754,2.328-1.13,3.458H48.529q-.945-2.734-1.7-5.846c-.5-2.074-1.006-4.086-1.381-6.035h2.89c.124.692.251,1.381.378,2.074.124.755.252,1.447.438,2.2.127.755.316,1.444.441,2.135a13.7,13.7,0,0,0,.5,1.888c.19-.565.379-1.133.627-1.76.189-.63.379-1.258.568-1.888s.376-1.257.5-1.822.314-1.13.438-1.571h2.328c.124.441.314,1.005.438,1.571.189.565.316,1.194.5,1.822s.379,1.258.568,1.888.376,1.2.565,1.76c.124-.565.314-1.2.441-1.888s.314-1.38.441-2.135.248-1.447.376-2.2.252-1.447.376-2.074h2.766c-.376,2.012-.879,4.023-1.381,6.035-.5,2.073-1.068,3.958-1.7,5.846Zm-25.458,0V7.937a6.289,6.289,0,0,1-1.13.627,9.8,9.8,0,0,1-1.257.5L26.9,7.119c.313-.127.692-.316,1.006-.44.376-.19.692-.379,1.068-.566a9.356,9.356,0,0,0,1.006-.692,9.657,9.657,0,0,0,.819-.755h1.822V16.548ZM10.327,15.057a1.328,1.328,0,0,1,0-1.95l1.7-1.7a.488.488,0,0,0-.062-.631L10.138,8.957a1.447,1.447,0,0,1,0-1.949l.062-.063a1.333,1.333,0,0,1,1.949,0l3.772,3.771a.5.5,0,0,1,0,.693l-3.648,3.647a1.33,1.33,0,0,1-1.946,0ZM7.12,11.913a1.449,1.449,0,0,1,0-1.951,1.331,1.331,0,0,1,1.946,0l.63.631a.493.493,0,0,1,0,.692l-.63.628a1.326,1.326,0,0,1-1.946,0Zm11.818-.27L11.395,4.1a.492.492,0,0,0-.692,0L6.49,8.313a2.272,2.272,0,0,1-3.2,0,.791.791,0,0,1,.124-.752L10.83.142a.488.488,0,0,1,.689,0L22.207,10.892a.5.5,0,0,1,0,.693l-.065.058a2.266,2.266,0,0,1-3.2,0Z" transform="translate(259.999 328)"/></g></svg>